# MagicaVoxel @ Ephtracy

# group
o 

# material
mtllib glider.mtl
usemtl palette

# normals
vn -1 0 0
vn 1 0 0
vn 0 0 1
vn 0 0 -1
vn 0 -1 0
vn 0 1 0

# texcoords
vt 0.533203 0.5
vt 0.845703 0.5
vt 0.958984 0.5

# verts
v -1 1.9 -0.8
v -1 1.9 -1.1
v -1 2 -0.8
v -1 2 -1.1
v -0.9 1.9 -0.5
v -0.9 1.9 -0.8
v -0.9 2 -0.5
v -0.9 2 -0.8
v -0.8 1.9 -0.3
v -0.8 1.9 -0.5
v -0.8 2 -0.3
v -0.8 2 -0.5
v -0.7 1.9 0
v -0.7 1.9 -0.3
v -0.7 2 0
v -0.7 2 -0.3
v -0.6 1.9 0.3
v -0.6 1.9 0
v -0.6 2 0.3
v -0.6 2 0
v -0.5 1.9 0.5
v -0.5 1.9 0.3
v -0.5 2 0.5
v -0.5 2 0.3
v -0.4 1.9 0.8
v -0.4 1.9 0.5
v -0.4 2 0.8
v -0.4 2 0.5
v -0.3 1.9 1
v -0.3 1.9 0.8
v -0.3 2 1
v -0.3 2 0.8
v 0.3 1.9 1
v 0.3 1.9 0.8
v 0.3 2 1
v 0.3 2 0.8
v 0.4 1.9 0.8
v 0.4 1.9 0.5
v 0.4 2 0.8
v 0.4 2 0.5
v 0.5 1.9 0.5
v 0.5 1.9 0.3
v 0.5 2 0.5
v 0.5 2 0.3
v 0.6 1.9 0.3
v 0.6 1.9 0
v 0.6 2 0.3
v 0.6 2 0
v 0.7 1.9 0
v 0.7 1.9 -0.3
v 0.7 2 0
v 0.7 2 -0.3
v 0.8 1.9 -0.3
v 0.8 1.9 -0.5
v 0.8 2 -0.3
v 0.8 2 -0.5
v 0.9 1.9 -0.5
v 0.9 1.9 -0.8
v 0.9 2 -0.5
v 0.9 2 -0.8
v 1 1.9 -0.8
v 1 1.9 -1.1
v 1 2 -0.8
v 1 2 -1.1
v -0.3 1.9 1
v -0.3 2 1
v 0.3 1.9 1
v 0.3 2 1
v -0.4 1.9 0.8
v -0.4 2 0.8
v -0.3 1.9 0.8
v -0.3 2 0.8
v 0.3 1.9 0.8
v 0.3 2 0.8
v 0.4 1.9 0.8
v 0.4 2 0.8
v -0.5 1.9 0.5
v -0.5 2 0.5
v -0.4 1.9 0.5
v -0.4 2 0.5
v 0.4 1.9 0.5
v 0.4 2 0.5
v 0.5 1.9 0.5
v 0.5 2 0.5
v -0.6 1.9 0.3
v -0.6 2 0.3
v -0.5 1.9 0.3
v -0.5 2 0.3
v 0.5 1.9 0.3
v 0.5 2 0.3
v 0.6 1.9 0.3
v 0.6 2 0.3
v -0.7 1.9 0
v -0.7 2 0
v -0.6 1.9 0
v -0.6 2 0
v 0.6 1.9 0
v 0.6 2 0
v 0.7 1.9 0
v 0.7 2 0
v -0.8 1.9 -0.3
v -0.8 2 -0.3
v -0.7 1.9 -0.3
v -0.7 2 -0.3
v 0.7 1.9 -0.3
v 0.7 2 -0.3
v 0.8 1.9 -0.3
v 0.8 2 -0.3
v -0.9 1.9 -0.5
v -0.9 2 -0.5
v -0.8 1.9 -0.5
v -0.8 2 -0.5
v 0.8 1.9 -0.5
v 0.8 2 -0.5
v 0.9 1.9 -0.5
v 0.9 2 -0.5
v -1 1.9 -0.8
v -1 2 -0.8
v -0.9 1.9 -0.8
v -0.9 2 -0.8
v 0.9 1.9 -0.8
v 0.9 2 -0.8
v 1 1.9 -0.8
v 1 2 -0.8
v -1 1.9 -1.1
v -1 2 -1.1
v 1 1.9 -1.1
v 1 2 -1.1
v -0.3 1.9 1
v 0.3 1.9 1
v -0.2 1.9 0.9
v -0.1 1.9 0.9
v 0.1 1.9 0.9
v 0.2 1.9 0.9
v -0.4 1.9 0.8
v -0.3 1.9 0.8
v -0.2 1.9 0.8
v 0.2 1.9 0.8
v 0.3 1.9 0.8
v 0.4 1.9 0.8
v -0.5 1.9 0.5
v -0.4 1.9 0.5
v -0.3 1.9 0.5
v 0.3 1.9 0.5
v 0.4 1.9 0.5
v 0.5 1.9 0.5
v -0.6 1.9 0.3
v -0.5 1.9 0.3
v -0.4 1.9 0.3
v 0.4 1.9 0.3
v 0.5 1.9 0.3
v 0.6 1.9 0.3
v -0.7 1.9 0
v -0.6 1.9 0
v -0.5 1.9 0
v 0.5 1.9 0
v 0.6 1.9 0
v 0.7 1.9 0
v -0.8 1.9 -0.3
v -0.7 1.9 -0.3
v -0.6 1.9 -0.3
v 0.6 1.9 -0.3
v 0.7 1.9 -0.3
v 0.8 1.9 -0.3
v -0.9 1.9 -0.5
v -0.8 1.9 -0.5
v -0.7 1.9 -0.5
v 0.7 1.9 -0.5
v 0.8 1.9 -0.5
v 0.9 1.9 -0.5
v -1 1.9 -0.8
v -0.9 1.9 -0.8
v -0.8 1.9 -0.8
v 0.8 1.9 -0.8
v 0.9 1.9 -0.8
v 1 1.9 -0.8
v -0.9 1.9 -1
v -0.7 1.9 -1
v -0.5 1.9 -1
v -0.3 1.9 -1
v -0.1 1.9 -1
v 0.1 1.9 -1
v 0.3 1.9 -1
v 0.5 1.9 -1
v 0.7 1.9 -1
v 0.9 1.9 -1
v -1 1.9 -1.1
v 1 1.9 -1.1
v -0.3 2 1
v 0.3 2 1
v -0.2 2 0.9
v -0.1 2 0.9
v 0.1 2 0.9
v 0.2 2 0.9
v -0.4 2 0.8
v -0.3 2 0.8
v -0.2 2 0.8
v 0.2 2 0.8
v 0.3 2 0.8
v 0.4 2 0.8
v -0.5 2 0.5
v -0.4 2 0.5
v -0.3 2 0.5
v 0.3 2 0.5
v 0.4 2 0.5
v 0.5 2 0.5
v -0.6 2 0.3
v -0.5 2 0.3
v -0.4 2 0.3
v 0.4 2 0.3
v 0.5 2 0.3
v 0.6 2 0.3
v -0.7 2 0
v -0.6 2 0
v -0.5 2 0
v 0.5 2 0
v 0.6 2 0
v 0.7 2 0
v -0.8 2 -0.3
v -0.7 2 -0.3
v -0.6 2 -0.3
v 0.6 2 -0.3
v 0.7 2 -0.3
v 0.8 2 -0.3
v -0.9 2 -0.5
v -0.8 2 -0.5
v -0.7 2 -0.5
v 0.7 2 -0.5
v 0.8 2 -0.5
v 0.9 2 -0.5
v -1 2 -0.8
v -0.9 2 -0.8
v -0.8 2 -0.8
v 0.8 2 -0.8
v 0.9 2 -0.8
v 1 2 -0.8
v -0.9 2 -1
v -0.7 2 -1
v -0.5 2 -1
v -0.3 2 -1
v -0.1 2 -1
v 0.1 2 -1
v 0.3 2 -1
v 0.5 2 -1
v 0.7 2 -1
v 0.9 2 -1
v -1 2 -1.1
v 1 2 -1.1

# faces
f 3/1/1 2/1/1 1/1/1
f 4/1/1 2/1/1 3/1/1
f 7/1/1 6/1/1 5/1/1
f 8/1/1 6/1/1 7/1/1
f 11/1/1 10/1/1 9/1/1
f 12/1/1 10/1/1 11/1/1
f 15/1/1 14/1/1 13/1/1
f 16/1/1 14/1/1 15/1/1
f 19/1/1 18/1/1 17/1/1
f 20/1/1 18/1/1 19/1/1
f 23/1/1 22/1/1 21/1/1
f 24/1/1 22/1/1 23/1/1
f 27/1/1 26/1/1 25/1/1
f 28/1/1 26/1/1 27/1/1
f 31/1/1 30/1/1 29/1/1
f 32/1/1 30/1/1 31/1/1
f 33/1/2 34/1/2 35/1/2
f 35/1/2 34/1/2 36/1/2
f 37/1/2 38/1/2 39/1/2
f 39/1/2 38/1/2 40/1/2
f 41/1/2 42/1/2 43/1/2
f 43/1/2 42/1/2 44/1/2
f 45/1/2 46/1/2 47/1/2
f 47/1/2 46/1/2 48/1/2
f 49/1/2 50/1/2 51/1/2
f 51/1/2 50/1/2 52/1/2
f 53/1/2 54/1/2 55/1/2
f 55/1/2 54/1/2 56/1/2
f 57/1/2 58/1/2 59/1/2
f 59/1/2 58/1/2 60/1/2
f 61/1/2 62/1/2 63/1/2
f 63/1/2 62/1/2 64/1/2
f 67/1/3 66/1/3 65/1/3
f 68/1/3 66/1/3 67/1/3
f 71/1/3 70/1/3 69/1/3
f 72/1/3 70/1/3 71/1/3
f 75/1/3 74/1/3 73/1/3
f 76/1/3 74/1/3 75/1/3
f 79/1/3 78/1/3 77/1/3
f 80/1/3 78/1/3 79/1/3
f 83/1/3 82/1/3 81/1/3
f 84/1/3 82/1/3 83/1/3
f 87/1/3 86/1/3 85/1/3
f 88/1/3 86/1/3 87/1/3
f 91/1/3 90/1/3 89/1/3
f 92/1/3 90/1/3 91/1/3
f 95/1/3 94/1/3 93/1/3
f 96/1/3 94/1/3 95/1/3
f 99/1/3 98/1/3 97/1/3
f 100/1/3 98/1/3 99/1/3
f 103/1/3 102/1/3 101/1/3
f 104/1/3 102/1/3 103/1/3
f 107/1/3 106/1/3 105/1/3
f 108/1/3 106/1/3 107/1/3
f 111/1/3 110/1/3 109/1/3
f 112/1/3 110/1/3 111/1/3
f 115/1/3 114/1/3 113/1/3
f 116/1/3 114/1/3 115/1/3
f 119/1/3 118/1/3 117/1/3
f 120/1/3 118/1/3 119/1/3
f 123/1/3 122/1/3 121/1/3
f 124/1/3 122/1/3 123/1/3
f 125/1/4 126/1/4 127/1/4
f 127/1/4 126/1/4 128/1/4
f 131/1/5 130/1/5 129/1/5
f 132/1/5 130/1/5 131/1/5
f 133/1/5 130/1/5 132/1/5
f 134/1/5 130/1/5 133/1/5
f 136/1/5 131/1/5 129/1/5
f 137/3/5 132/3/5 131/3/5
f 137/1/5 131/1/5 136/1/5
f 138/1/5 130/1/5 134/1/5
f 138/3/5 134/3/5 133/3/5
f 139/1/5 130/1/5 138/1/5
f 142/1/5 136/1/5 135/1/5
f 143/3/5 137/3/5 136/3/5
f 143/1/5 136/1/5 142/1/5
f 144/1/5 140/1/5 139/1/5
f 144/3/5 139/3/5 138/3/5
f 145/1/5 140/1/5 144/1/5
f 148/1/5 142/1/5 141/1/5
f 149/2/5 143/2/5 142/2/5
f 149/1/5 142/1/5 148/1/5
f 150/1/5 146/1/5 145/1/5
f 150/2/5 145/2/5 144/2/5
f 151/1/5 146/1/5 150/1/5
f 154/1/5 148/1/5 147/1/5
f 155/2/5 149/2/5 148/2/5
f 155/1/5 148/1/5 154/1/5
f 156/1/5 152/1/5 151/1/5
f 156/2/5 151/2/5 150/2/5
f 157/1/5 152/1/5 156/1/5
f 160/1/5 154/1/5 153/1/5
f 161/3/5 155/3/5 154/3/5
f 161/1/5 154/1/5 160/1/5
f 162/1/5 158/1/5 157/1/5
f 162/3/5 157/3/5 156/3/5
f 163/1/5 158/1/5 162/1/5
f 166/1/5 160/1/5 159/1/5
f 167/3/5 161/3/5 160/3/5
f 167/1/5 160/1/5 166/1/5
f 168/1/5 164/1/5 163/1/5
f 168/3/5 163/3/5 162/3/5
f 169/1/5 164/1/5 168/1/5
f 172/1/5 166/1/5 165/1/5
f 173/2/5 167/2/5 166/2/5
f 173/1/5 166/1/5 172/1/5
f 174/1/5 170/1/5 169/1/5
f 174/2/5 169/2/5 168/2/5
f 175/1/5 170/1/5 174/1/5
f 177/1/5 172/1/5 171/1/5
f 177/2/5 173/2/5 172/2/5
f 178/3/5 161/3/5 167/3/5
f 178/2/5 173/2/5 177/2/5
f 178/2/5 167/2/5 173/2/5
f 179/2/5 149/2/5 155/2/5
f 179/3/5 161/3/5 178/3/5
f 179/3/5 155/3/5 161/3/5
f 180/3/5 137/3/5 143/3/5
f 180/2/5 149/2/5 179/2/5
f 180/2/5 143/2/5 149/2/5
f 181/3/5 132/3/5 137/3/5
f 181/3/5 137/3/5 180/3/5
f 181/2/5 133/2/5 132/2/5
f 182/3/5 138/3/5 133/3/5
f 182/2/5 133/2/5 181/2/5
f 182/3/5 144/3/5 138/3/5
f 183/2/5 150/2/5 144/2/5
f 183/3/5 144/3/5 182/3/5
f 183/2/5 156/2/5 150/2/5
f 184/3/5 168/3/5 162/3/5
f 184/2/5 156/2/5 183/2/5
f 184/3/5 162/3/5 156/3/5
f 185/2/5 175/2/5 174/2/5
f 185/3/5 168/3/5 184/3/5
f 185/2/5 174/2/5 168/2/5
f 186/1/5 176/1/5 175/1/5
f 186/2/5 175/2/5 185/2/5
f 187/1/5 180/1/5 179/1/5
f 187/1/5 179/1/5 178/1/5
f 187/1/5 186/1/5 185/1/5
f 187/1/5 183/1/5 182/1/5
f 187/1/5 185/1/5 184/1/5
f 187/1/5 184/1/5 183/1/5
f 187/1/5 177/1/5 171/1/5
f 187/1/5 182/1/5 181/1/5
f 187/1/5 181/1/5 180/1/5
f 187/1/5 178/1/5 177/1/5
f 188/1/5 176/1/5 186/1/5
f 188/1/5 186/1/5 187/1/5
f 189/1/6 190/1/6 191/1/6
f 191/1/6 190/1/6 192/1/6
f 192/1/6 190/1/6 193/1/6
f 193/1/6 190/1/6 194/1/6
f 189/1/6 191/1/6 196/1/6
f 191/3/6 192/3/6 197/3/6
f 196/1/6 191/1/6 197/1/6
f 194/1/6 190/1/6 198/1/6
f 193/3/6 194/3/6 198/3/6
f 198/1/6 190/1/6 199/1/6
f 195/1/6 196/1/6 202/1/6
f 196/3/6 197/3/6 203/3/6
f 202/1/6 196/1/6 203/1/6
f 199/1/6 200/1/6 204/1/6
f 198/3/6 199/3/6 204/3/6
f 204/1/6 200/1/6 205/1/6
f 201/1/6 202/1/6 208/1/6
f 202/2/6 203/2/6 209/2/6
f 208/1/6 202/1/6 209/1/6
f 205/1/6 206/1/6 210/1/6
f 204/2/6 205/2/6 210/2/6
f 210/1/6 206/1/6 211/1/6
f 207/1/6 208/1/6 214/1/6
f 208/2/6 209/2/6 215/2/6
f 214/1/6 208/1/6 215/1/6
f 211/1/6 212/1/6 216/1/6
f 210/2/6 211/2/6 216/2/6
f 216/1/6 212/1/6 217/1/6
f 213/1/6 214/1/6 220/1/6
f 214/3/6 215/3/6 221/3/6
f 220/1/6 214/1/6 221/1/6
f 217/1/6 218/1/6 222/1/6
f 216/3/6 217/3/6 222/3/6
f 222/1/6 218/1/6 223/1/6
f 219/1/6 220/1/6 226/1/6
f 220/3/6 221/3/6 227/3/6
f 226/1/6 220/1/6 227/1/6
f 223/1/6 224/1/6 228/1/6
f 222/3/6 223/3/6 228/3/6
f 228/1/6 224/1/6 229/1/6
f 225/1/6 226/1/6 232/1/6
f 226/2/6 227/2/6 233/2/6
f 232/1/6 226/1/6 233/1/6
f 229/1/6 230/1/6 234/1/6
f 228/2/6 229/2/6 234/2/6
f 234/1/6 230/1/6 235/1/6
f 231/1/6 232/1/6 237/1/6
f 232/2/6 233/2/6 237/2/6
f 227/3/6 221/3/6 238/3/6
f 237/2/6 233/2/6 238/2/6
f 233/2/6 227/2/6 238/2/6
f 215/2/6 209/2/6 239/2/6
f 238/3/6 221/3/6 239/3/6
f 221/3/6 215/3/6 239/3/6
f 203/3/6 197/3/6 240/3/6
f 239/2/6 209/2/6 240/2/6
f 209/2/6 203/2/6 240/2/6
f 197/3/6 192/3/6 241/3/6
f 240/3/6 197/3/6 241/3/6
f 192/2/6 193/2/6 241/2/6
f 193/3/6 198/3/6 242/3/6
f 241/2/6 193/2/6 242/2/6
f 198/3/6 204/3/6 242/3/6
f 204/2/6 210/2/6 243/2/6
f 242/3/6 204/3/6 243/3/6
f 210/2/6 216/2/6 243/2/6
f 222/3/6 228/3/6 244/3/6
f 243/2/6 216/2/6 244/2/6
f 216/3/6 222/3/6 244/3/6
f 234/2/6 235/2/6 245/2/6
f 244/3/6 228/3/6 245/3/6
f 228/2/6 234/2/6 245/2/6
f 235/1/6 236/1/6 246/1/6
f 245/2/6 235/2/6 246/2/6
f 239/1/6 240/1/6 247/1/6
f 238/1/6 239/1/6 247/1/6
f 245/1/6 246/1/6 247/1/6
f 242/1/6 243/1/6 247/1/6
f 244/1/6 245/1/6 247/1/6
f 243/1/6 244/1/6 247/1/6
f 231/1/6 237/1/6 247/1/6
f 241/1/6 242/1/6 247/1/6
f 240/1/6 241/1/6 247/1/6
f 237/1/6 238/1/6 247/1/6
f 246/1/6 236/1/6 248/1/6
f 247/1/6 246/1/6 248/1/6
